<svg width="353" height="51" viewBox="0 0 353 51" fill="none" xmlns="http://www.w3.org/2000/svg">
<path d="M17.976 40V25.744H7.992V40H0.119995V6.73601H7.992V19.6H17.976V6.73601H25.848V40H17.976Z" fill="#141414"/>
<path d="M54.1687 26.752C54.1687 27.808 54.1207 28.72 54.0247 29.488H38.2327C38.4887 31.632 39.0967 33.136 40.0567 34C41.0167 34.864 42.3447 35.296 44.0407 35.296C45.0647 35.296 46.0567 35.12 47.0167 34.768C47.9767 34.384 49.0167 33.808 50.1367 33.04L53.2567 37.264C50.2807 39.632 46.9687 40.816 43.3207 40.816C39.1927 40.816 36.0247 39.6 33.8167 37.168C31.6087 34.736 30.5047 31.472 30.5047 27.376C30.5047 24.784 30.9687 22.464 31.8967 20.416C32.8247 18.336 34.1847 16.704 35.9767 15.52C37.7687 14.304 39.9127 13.696 42.4087 13.696C46.0887 13.696 48.9687 14.848 51.0487 17.152C53.1287 19.456 54.1687 22.656 54.1687 26.752ZM46.7287 24.592C46.6647 20.688 45.2887 18.736 42.6007 18.736C41.2887 18.736 40.2647 19.216 39.5287 20.176C38.8247 21.136 38.3927 22.72 38.2327 24.928H46.7287V24.592Z" fill="#141414"/>
<path d="M73.3571 13.696C75.5651 13.696 77.2931 14.368 78.5411 15.712C79.7891 17.056 80.4131 18.944 80.4131 21.376V40H72.8291V22.672C72.8291 21.392 72.6211 20.512 72.2051 20.032C71.8211 19.52 71.2291 19.264 70.4291 19.264C68.8931 19.264 67.4211 20.368 66.0131 22.576V40H58.4291V14.512H65.0531L65.5811 17.536C66.6691 16.256 67.8371 15.296 69.0851 14.656C70.3651 14.016 71.7891 13.696 73.3571 13.696Z" fill="#141414"/>
<path d="M99.9562 13.792C100.884 13.792 101.732 13.904 102.5 14.128L101.3 21.472C100.34 21.248 99.5722 21.136 98.9962 21.136C97.4922 21.136 96.3402 21.664 95.5402 22.72C94.7722 23.744 94.1642 25.296 93.7162 27.376V40H86.1322V14.512H92.7562L93.3802 19.456C93.9562 17.696 94.8202 16.32 95.9722 15.328C97.1562 14.304 98.4842 13.792 99.9562 13.792Z" fill="#141414"/>
<path d="M112.982 14.512V40H105.398V14.512H112.982ZM109.142 1.07201C110.454 1.07201 111.526 1.48801 112.358 2.32001C113.222 3.12001 113.654 4.14401 113.654 5.39201C113.654 6.64001 113.222 7.68001 112.358 8.51201C111.526 9.31201 110.454 9.71201 109.142 9.71201C107.83 9.71201 106.758 9.31201 105.926 8.51201C105.094 7.68001 104.678 6.64001 104.678 5.39201C104.678 4.14401 105.094 3.12001 105.926 2.32001C106.758 1.48801 107.83 1.07201 109.142 1.07201Z" fill="#141414"/>
<path d="M141.793 14.512V50.656L134.209 49.84V37.552C132.513 39.728 130.257 40.816 127.441 40.816C124.273 40.816 121.857 39.6 120.193 37.168C118.561 34.736 117.745 31.408 117.745 27.184C117.745 24.56 118.177 22.24 119.041 20.224C119.905 18.176 121.121 16.576 122.689 15.424C124.289 14.272 126.129 13.696 128.209 13.696C130.801 13.696 132.993 14.704 134.785 16.72L135.169 14.512H141.793ZM129.793 35.248C131.553 35.248 133.025 34.288 134.209 32.368V21.376C133.601 20.64 132.993 20.096 132.385 19.744C131.777 19.392 131.073 19.216 130.273 19.216C128.833 19.216 127.697 19.872 126.865 21.184C126.033 22.464 125.617 24.48 125.617 27.232C125.617 30.208 125.969 32.288 126.673 33.472C127.409 34.656 128.449 35.248 129.793 35.248Z" fill="#141414"/>
<path d="M169.23 40H162.654L162.318 36.784C160.462 39.472 157.886 40.816 154.59 40.816C152.254 40.816 150.478 40.112 149.262 38.704C148.078 37.296 147.486 35.328 147.486 32.8V14.512H155.07V31.84C155.07 33.088 155.262 33.968 155.646 34.48C156.062 34.96 156.686 35.2 157.518 35.2C159.118 35.2 160.494 34.208 161.646 32.224V14.512H169.23V40Z" fill="#141414"/>
<path d="M197.419 26.752C197.419 27.808 197.371 28.72 197.275 29.488H181.483C181.739 31.632 182.347 33.136 183.307 34C184.267 34.864 185.595 35.296 187.291 35.296C188.315 35.296 189.307 35.12 190.267 34.768C191.227 34.384 192.267 33.808 193.387 33.04L196.507 37.264C193.531 39.632 190.219 40.816 186.571 40.816C182.443 40.816 179.275 39.6 177.067 37.168C174.859 34.736 173.755 31.472 173.755 27.376C173.755 24.784 174.219 22.464 175.147 20.416C176.075 18.336 177.435 16.704 179.227 15.52C181.019 14.304 183.163 13.696 185.659 13.696C189.339 13.696 192.219 14.848 194.299 17.152C196.379 19.456 197.419 22.656 197.419 26.752ZM189.979 24.592C189.915 20.688 188.539 18.736 185.851 18.736C184.539 18.736 183.515 19.216 182.779 20.176C182.075 21.136 181.643 22.72 181.483 24.928H189.979V24.592Z" fill="#141414"/>
<path d="M226.798 5.92001C228.878 5.92001 230.718 6.22401 232.318 6.83201C233.95 7.44001 235.486 8.35201 236.926 9.56801L233.182 14.032C232.19 13.264 231.214 12.688 230.254 12.304C229.294 11.92 228.27 11.728 227.182 11.728C224.942 11.728 223.166 12.672 221.854 14.56C220.574 16.448 219.934 19.36 219.934 23.296C219.934 27.168 220.574 30.048 221.854 31.936C223.166 33.792 224.974 34.72 227.278 34.72C228.494 34.72 229.598 34.496 230.59 34.048C231.582 33.568 232.654 32.896 233.806 32.032L237.31 36.544C236.062 37.792 234.542 38.816 232.75 39.616C230.99 40.416 229.038 40.816 226.894 40.816C223.822 40.816 221.15 40.144 218.878 38.8C216.606 37.456 214.83 35.472 213.55 32.848C212.302 30.192 211.678 27.008 211.678 23.296C211.678 19.68 212.318 16.56 213.598 13.936C214.91 11.312 216.702 9.32801 218.974 7.984C221.278 6.60801 223.886 5.92001 226.798 5.92001Z" fill="#141414"/>
<path d="M250.782 13.696C254.686 13.696 257.742 14.896 259.95 17.296C262.158 19.664 263.262 22.992 263.262 27.28C263.262 30 262.75 32.384 261.726 34.432C260.734 36.448 259.294 38.016 257.406 39.136C255.55 40.256 253.342 40.816 250.782 40.816C246.91 40.816 243.854 39.632 241.614 37.264C239.406 34.864 238.302 31.52 238.302 27.232C238.302 24.512 238.798 22.144 239.79 20.128C240.814 18.08 242.254 16.496 244.11 15.376C245.998 14.256 248.222 13.696 250.782 13.696ZM250.782 19.264C249.246 19.264 248.094 19.92 247.326 21.232C246.558 22.512 246.174 24.512 246.174 27.232C246.174 30.016 246.542 32.048 247.278 33.328C248.046 34.608 249.214 35.248 250.782 35.248C252.318 35.248 253.47 34.608 254.238 33.328C255.006 32.016 255.39 30 255.39 27.28C255.39 24.496 255.006 22.464 254.238 21.184C253.502 19.904 252.35 19.264 250.782 19.264Z" fill="#141414"/>
<path d="M281.597 13.792C282.525 13.792 283.373 13.904 284.141 14.128L282.941 21.472C281.981 21.248 281.213 21.136 280.637 21.136C279.133 21.136 277.981 21.664 277.181 22.72C276.413 23.744 275.805 25.296 275.357 27.376V40H267.773V14.512H274.397L275.021 19.456C275.597 17.696 276.461 16.32 277.613 15.328C278.797 14.304 280.125 13.792 281.597 13.792Z" fill="#141414"/>
<path d="M300.862 13.792C301.79 13.792 302.638 13.904 303.406 14.128L302.206 21.472C301.246 21.248 300.478 21.136 299.902 21.136C298.398 21.136 297.247 21.664 296.447 22.72C295.679 23.744 295.07 25.296 294.622 27.376V40H287.038V14.512H293.663L294.286 19.456C294.862 17.696 295.727 16.32 296.879 15.328C298.063 14.304 299.39 13.792 300.862 13.792Z" fill="#141414"/>
<path d="M327.075 26.752C327.075 27.808 327.027 28.72 326.931 29.488H311.139C311.395 31.632 312.003 33.136 312.963 34C313.923 34.864 315.251 35.296 316.947 35.296C317.971 35.296 318.963 35.12 319.923 34.768C320.883 34.384 321.923 33.808 323.043 33.04L326.163 37.264C323.187 39.632 319.875 40.816 316.227 40.816C312.099 40.816 308.931 39.6 306.723 37.168C304.515 34.736 303.411 31.472 303.411 27.376C303.411 24.784 303.875 22.464 304.803 20.416C305.731 18.336 307.091 16.704 308.883 15.52C310.675 14.304 312.819 13.696 315.315 13.696C318.995 13.696 321.875 14.848 323.955 17.152C326.035 19.456 327.075 22.656 327.075 26.752ZM319.635 24.592C319.571 20.688 318.195 18.736 315.507 18.736C314.195 18.736 313.171 19.216 312.435 20.176C311.731 21.136 311.299 22.72 311.139 24.928H319.635V24.592ZM309.027 10.24L306.339 7.12L313.107 0.544006H317.763L324.531 7.12L321.843 10.24L315.459 5.82401L309.027 10.24Z" fill="#141414"/>
<path d="M351.123 32.608C351.123 33.568 351.251 34.272 351.507 34.72C351.795 35.168 352.243 35.504 352.851 35.728L351.267 40.672C349.699 40.544 348.419 40.208 347.427 39.664C346.435 39.088 345.667 38.192 345.123 36.976C343.459 39.536 340.899 40.816 337.443 40.816C334.915 40.816 332.899 40.08 331.395 38.608C329.891 37.136 329.139 35.216 329.139 32.848C329.139 30.064 330.163 27.936 332.211 26.464C334.259 24.992 337.219 24.256 341.091 24.256H343.683V23.152C343.683 21.648 343.363 20.624 342.723 20.08C342.083 19.504 340.963 19.216 339.363 19.216C338.531 19.216 337.523 19.344 336.339 19.6C335.155 19.824 333.939 20.144 332.691 20.56L330.963 15.568C332.563 14.96 334.195 14.496 335.859 14.176C337.555 13.856 339.123 13.696 340.563 13.696C344.211 13.696 346.883 14.448 348.579 15.952C350.275 17.456 351.123 19.712 351.123 22.72V32.608ZM339.651 35.392C341.379 35.392 342.723 34.576 343.683 32.944V28.432H341.811C340.083 28.432 338.787 28.736 337.923 29.344C337.091 29.952 336.675 30.896 336.675 32.176C336.675 33.2 336.931 34 337.443 34.576C337.987 35.12 338.723 35.392 339.651 35.392Z" fill="#141414"/>
</svg>
